# xmcd
#
# Track frame offsets:
#	150
#	10280
#	19945
#	31957
#	43762
#	56580
#	69557
#	81875
#	93205
#	105122
#	114505
#	127665
#	140160
#	150617
#	161777
#	173250
#	183310
#	193155
#	204547
#	214720
#
# Disc length: 2993
#
# Revision: 2
# Processed by: cddbd v1.5.1PL0 Copyright (c) Steve Scherf et al.
# Submitted via: EasyCDDAExtractor 5.0.6
# Normalized: r1:DSETVAR1
#
DISCID=060baf14
DTITLE=Various Artist - Millionaires Only - Vol 2
DYEAR=1900
DGENRE=Blues
TTITLE0=Four Temples - All Of My Life
TTITLE1=Magnetics - Lady In Green
TTITLE2=Dennis Edwards - Johnny On The Spot
TTITLE3=Reggie Alexander - It's Better
TTITLE4=Billy Arnell - Tough Girl (inst.)
TTITLE5=Jimmy Delphs - Dancing A Hole In The World
TTITLE6=Danny Woods - You Had Me Fooled
TTITLE7=Sonny Herman - What About Me
TTITLE8=Ruby - Decieved
TTITLE9=Cashmerres - Showstopper
TTITLE10=Limelights - Don't Leave Me Baby
TTITLE11=Chuck Flamingo - Whats My Chances
TTITLE12=Boby Womack - Nothing You Can Do
TTITLE13=Eddie Ray - Iv'e Got Something Of Value
TTITLE14=John Wesley - Love's Such A Funny Thing
TTITLE15=Debbie Curtis - I Check The Mailbox
TTITLE16=Jessie Davies - There's Room For Me
TTITLE17=John Tee - Crazy
TTITLE18=Clveland Robinson - Love Is A Trap
TTITLE19=Quintessents - Image Of A Man
EXTD=tim1701
EXTT0=
EXTT1=
EXTT2=
EXTT3=
EXTT4=
EXTT5=
EXTT6=
EXTT7=
EXTT8=
EXTT9=
EXTT10=
EXTT11=
EXTT12=
EXTT13=
EXTT14=
EXTT15=
EXTT16=
EXTT17=
EXTT18=
EXTT19=
PLAYORDER=
